<svg aria-label="Reels" width="23" height="23.961" viewBox="0 0 23 23.961" role="img"  xmlns="http://www.w3.org/2000/svg" xmlns:xlink="http://www.w3.org/1999/xlink">
  <path
    d="M2 8.552C2 5.704 2.698 4.546 3.606 3.607 4.546 2.699 5.704 2 8.552 2h6.896c2.848 0 4.006.699 4.946 1.607.908.939 1.606 2.097 1.606 4.945v6.898c0 2.849-.698 4.006-1.606 4.945-.94.908-2.098 1.607-4.946 1.607H8.552c-2.848 0-4.006-.699-4.946-1.607C2.698 19.456 2 18.299 2 15.45Z"
    fill="#c1c0c9"
  />

  <path
    d="M2.049 6.252h19.901v1.5H2.049z
       M7.207 2.11l2.795 4.892h-1.7L5.507 2.96z
       M13.504 2.001l2.858 5.001h-1.7l-2.858-5.001z"
    fill="#ffffff"
    opacity="0.7"
  />

  <path
    d="M9.763 17.664a.908.908 0 0 1-.454-.787V11.63a.909.909 0 0 1 1.364-.788l4.545 2.624a.909.909 0 0 1 0 1.575l-4.545 2.624a.91.91 0 0 1-.91 0Z"
    fill="#ffffff"
  />
</svg>