<?xml version="1.0" encoding="utf-8"?>
<!-- Generator: Adobe Illustrator 21.0.0, SVG Export Plug-In . SVG Version: 6.00 Build 0)  -->
<svg version="1.1" id="Слой_1" xmlns="http://www.w3.org/2000/svg" xmlns:xlink="http://www.w3.org/1999/xlink" x="0px" y="0px"
	 viewBox="0 0 114 123.4" style="enable-background:new 0 0 114 123.4;" xml:space="preserve">
<style type="text/css">
	.st0{fill:#EB5757;}
	.st1{fill:#F4CB61;}
	.st2{fill:#FFFFFF;}
</style>
<path class="st0" d="M99,33.4H15c-8.3,0-15,6.7-15,15v11C0,66,4.3,71.6,10.3,73.6c-0.2,0.9-0.3,1.8-0.3,2.8v32c0,8.3,6.7,15,15,15
	h65c8.3,0,15-6.7,15-15v-32c0-1.1-0.1-2.1-0.3-3.1c5.5-2.2,9.3-7.6,9.3-13.9v-11C114,40.1,107.3,33.4,99,33.4z"/>
<rect x="49" y="38" class="st1" width="16" height="80.4"/>
<path d="M99,33.4h-5.6c1.5-1.6,2.7-3.4,3.6-5.5c1.1-2.4,1.7-5,1.7-7.7c0-2.7-0.4-5.3-1.4-7.8c-1-2.5-2.5-4.7-4.4-6.6
	c-1.9-1.9-4.1-3.4-6.6-4.4c-2.5-1-5.1-1.5-7.8-1.4c-2.7,0-5.3,0.6-7.7,1.7c-2.5,1.1-4.6,2.6-6.5,4.7l-0.1,0.1
	c-0.4,0.4-1.5,1.6-2.3,2.4l-0.7,0.7c-0.7,0.7-1.5,1.5-2.2,2.3c-0.5,0.5-1,1-1.4,1.5c-0.5-0.6-1.1-1.2-1.8-1.9
	c-1.1-1.1-2.2-2.2-3.1-3.1l-0.6-0.6c-0.9-0.9-1.7-1.8-2-2.1l-0.4-0.4C45.9,1.8,40.9-0.1,35.8,0c-5.2,0.1-10.1,2.1-13.7,5.8
	c-3.7,3.7-5.7,8.5-5.8,13.7c-0.1,5.2,1.8,10.1,5.3,13.8H15c-8.3,0-15,6.7-15,15v11C0,66,4.3,71.6,10.3,73.6
	c-0.2,0.9-0.3,1.8-0.3,2.8v32c0,8.3,6.7,15,15,15h65c8.3,0,15-6.7,15-15v-32c0-1.1-0.1-2.1-0.3-3.1c5.5-2.2,9.3-7.6,9.3-13.9v-11
	C114,40.1,107.3,33.4,99,33.4z M100,108.4c0,5.5-4.5,10-10,10H25c-5.5,0-10-4.5-10-10c0,0,0.1-33.3,0.2-33.9l0,0h84.6
	c0.1,0.6,0.2,1.2,0.2,1.9V108.4z M109,59.4c0,4.2-2.6,7.8-6.2,9.3l-2.1,0.9H13.8l-1.9-0.7c-4-1.3-6.8-5.1-6.8-9.5v-11
	c0-5.1,3.8-9.3,8.7-9.9c0.4-0.1,86.7,0,87.3,0.1c4.6,0.9,8,5,8,9.8V59.4z"/>
<path class="st2" d="M92.7,14.3c-0.8-1.9-1.9-3.5-3.3-4.9c-1.4-1.4-3.1-2.5-4.9-3.3C82.6,5.3,80.6,5,78.6,5c-2,0-3.9,0.5-5.8,1.3
	c-1.8,0.8-3.5,2-4.8,3.4c-0.4,0.5-1.2,1.3-2.5,2.6l-0.7,0.7c-0.7,0.7-1.4,1.5-2.2,2.3c-1.3,1.4-2.3,2.5-3.1,3.4L57.6,21l-1.9-2.2
	c-0.9-1-2-2.2-3.5-3.7c-1.1-1.1-2.2-2.2-3.1-3.1l-0.6-0.6c-1.1-1.1-1.8-1.9-2.3-2.3C43.4,6.4,39.7,5,35.8,5
	C32,5.1,28.3,6.6,25.6,9.4c-2.7,2.7-4.3,6.4-4.4,10.3c-0.1,3.9,1.4,7.6,4,10.4c1.3,1,3.5,2.1,6.6,3.4l0,0h53.1
	c1.4-0.8,2.8-1.7,4.1-2.7l0,0c1.4-1.3,2.6-3,3.4-4.8c0.8-1.8,1.2-3.8,1.3-5.8C93.8,18.1,93.4,16.1,92.7,14.3z M37.9,23.9
	c-1.1-0.5-3.3-1.5-4-1.9c0,0-0.5-0.3-0.7-0.5c-0.1-0.2-0.5-0.7-0.5-0.7c-0.2-0.4-0.3-0.9-0.3-1.3c0-0.7,0.2-1.4,0.7-1.9l0-0.1
	l0.2-0.2c1-1,2.5-1.2,3.7-0.6c0,0,0.4,0.2,0.5,0.4c0.1,0.1,0.5,0.5,0.5,0.5c0.4,0.6,1.9,2.5,2.3,3L37.9,23.9z M81.7,20.6l0,0.2
	c-0.1,0.8-0.5,1.4-1.2,1.8c0,0-2.9,1.2-4.3,1.7l-2.3-3.8c0.4-0.4,3.7-3.4,4.5-3.5l0.1,0c0.7,0,1.3,0.2,1.8,0.6
	c0.9,0.6,1.4,1.6,1.4,2.6C81.8,20.4,81.7,20.5,81.7,20.6z"/>
</svg>
