<?xml version="1.0" encoding="utf-8"?>
<!-- Generator: Adobe Illustrator 21.0.0, SVG Export Plug-In . SVG Version: 6.00 Build 0)  -->
<svg version="1.1" id="Слой_1" xmlns="http://www.w3.org/2000/svg" xmlns:xlink="http://www.w3.org/1999/xlink" x="0px" y="0px"
	 viewBox="0 0 100 100" style="enable-background:new 0 0 100 100;" xml:space="preserve">
<linearGradient id="SVGID_1_" gradientUnits="userSpaceOnUse" x1="38.4433" y1="104.3712" x2="61.5567" y2="-4.3712">
	<stop  offset="2.980132e-02" style="stop-color:#FFDD55"/>
	<stop  offset="0.1278" style="stop-color:#FFAA4D"/>
	<stop  offset="0.2815" style="stop-color:#FF543E"/>
	<stop  offset="0.6556" style="stop-color:#C837AB"/>
	<stop  offset="0.7721" style="stop-color:#8A40C7"/>
	<stop  offset="0.8762" style="stop-color:#5A48DD"/>
	<stop  offset="0.9552" style="stop-color:#3C4CEB"/>
	<stop  offset="1" style="stop-color:#314EF0"/>
</linearGradient>
<path style="fill:url(#SVGID_1_);" d="M80,100H20C9,100,0,91,0,80V20C0,9,9,0,20,0h60c11,0,20,9,20,20v60C100,91,91,100,80,100z"/>
<path style="fill:#FFFFFF;" d="M50,10.3c-16.3,0-31.7-1.4-37.6,13.7c-2.5,6.3-2.1,14.4-2.1,26c0,10.2-0.3,19.8,2.1,26
	C18.3,91.1,33.8,89.7,50,89.7c15.6,0,31.7,1.6,37.6-13.7c2.4-6.3,2.1-14.3,2.1-26c0-15.5,0.9-25.5-6.7-33
	C75.4,9.3,65.1,10.3,50,10.3L50,10.3z M46.4,17.4c33.9-0.1,38.3-3.8,35.9,48.6c-0.8,18.6-15,16.5-32.3,16.5
	c-31.6,0-32.5-0.9-32.5-32.6C17.5,18,20,17.5,46.4,17.4L46.4,17.4z M71.2,24c-2.6,0-4.8,2.1-4.8,4.8s2.1,4.8,4.8,4.8
	s4.8-2.1,4.8-4.8C76,26.2,73.8,24,71.2,24z M50,29.6c-11.3,0-20.4,9.1-20.4,20.4S38.8,70.4,50,70.4S70.4,61.3,70.4,50
	S61.3,29.6,50,29.6L50,29.6z M50,36.8c17.5,0,17.5,26.5,0,26.5C32.5,63.2,32.5,36.8,50,36.8z"/>
</svg>
