<svg xmlns="http://www.w3.org/2000/svg">

	<symbol id="mld-get-more" viewBox="0 0 57.7 55">
		<path fill="#ffffff" d="M46.7,55L29.8,44.9c-0.3-0.2-0.6-0.3-0.9-0.3s-0.6,0.1-0.9,0.3L11,55l4.4-19.2c0.1-0.6-0.1-1.3-0.6-1.7L0,21l19.6-1.8c0.7-0.1,1.2-0.5,1.5-1.1L28.8,0l7.7,18.1c0.3,0.6,0.8,1,1.5,1.1L57.7,21L42.9,34c-0.5,0.4-0.7,1.1-0.6,1.7L46.7,55zM28.8,41.8c0.8,0,1.6,0.2,2.4,0.6l11.3,6.8l-2.9-12.9c-0.4-1.6,0.2-3.4,1.5-4.5l9.9-8.7L37.8,22c-1.7-0.2-3.2-1.2-3.8-2.8L28.8,7.1l-5.2,12.1c-0.7,1.6-2.1,2.6-3.8,2.8L6.7,23.2l9.9,8.7c1.3,1.1,1.8,2.8,1.5,4.5l-2.9,12.9l11.3-6.8C27.2,42.1,28,41.8,28.8,41.8z" />
		<path fill="currentColor" d="M38.4,44.1L29,38.5h-0.1l-9.4,5.6l2.4-10.7v-0.1l-8.3-7.2l10.9-1c0,0,0.1,0,0.1-0.1l4.3-10.1L33.2,25c0,0,0,0.1,0.1,0.1l10.9,1L36,33.3v0.1L38.4,44.1z M28.9,35.7c0.5,0,1,0.1,1.5,0.4l3.8,2.3l-1-4.3c-0.2-1,0.1-2.1,0.9-2.8l3.4-2.9L33.1,28c-1.1-0.1-2-0.8-2.4-1.8L28.9,22l-1.7,4.1c-0.4,1-1.3,1.7-2.4,1.7l-4.4,0.4l3.4,2.9c0.8,0.7,1.2,1.8,0.9,2.8l-1,4.3l3.8-2.3C27.9,35.8,28.4,35.7,28.9,35.7z" />
	</symbol>

	<symbol id="mld-location-filter" viewBox="0 0 43 43">
		<path fill="#ffffff" d="M37.8 17.5c.2.9.2 1.9.2 2.9 0 1.3-.1 2.5-.4 3.7-.6-.8-1.5-1.5-2.7-2.1-1.5-.8-2-1.7-1.9-2 0-.2.4-.4 1.1-.5 1.9-.5 3-1.3 3.7-2M13.6 21.9c1.1 1.6 3.5 1.5 5.7 1.4 2.3-.1 4.7-.2 6.4 1.2.6.5.9 1 .9 1.4.1.8-.9 1.9-1.9 3.1-1 1.1-2.1 2.3-2.7 3.7-.6 1.3-.9 2.6-1.1 3.9 0 .4 0 1 .2 1.5h-2.2c-.1-.5-.3-1.1-.8-1.5-1.3-1.5-2.2-3.2-3.1-5.7-.6-1.9-.9-3.4-1.1-4.7-.3-1.6-.5-2.9-1.2-4l.9-.3zM11.8 21.1c-3.6-3-3.4-6.1-2.8-8.5.6-2.1 1.7-3.1 2.9-4.1 1.2-1 2.6-2.2 3-4.2.1-.4.2-.7.2-.9.1 0 .2-.1.3-.1 0 .2 0 .4.1.5V4c.3 1.2.9 2.1 1.8 2.6.7.3 1.8.6 3.5-.1 1.4-.6 3-.4 3.4.1.3.4.6 1 .5 1.7-.1.6-.5 1.1-1.1 1.5-3.1 2-4.2 2.8-3.9 5.8 0 .3.1.6.2.9l-.2-.2c-.3-.3-.6-.5-.9-.8-1.1-1-3-1-4.4 0-1.4 1-2.4 3-1.2 5.8l.3.6-.9.2c-.1-.4-.4-.7-.8-1" />
		<path fill="currentColor" d="M37.7 24c.3-1.2.4-2.4.4-3.7 0-1-.1-1.9-.2-2.9-.7.8-1.8 1.5-3.6 1.9-.7.1-1.1.4-1.1.5-.1.3.4 1.3 1.9 2 1.1.7 2 1.4 2.6 2.2m-22.4-3.6c.3.8 1.7.7 3.8.6H21c2 0 4.2.3 6 1.7 1.1.9 1.7 1.9 1.8 3 .1 1.8-1.1 3.3-2.5 4.8-.9 1-1.8 2-2.3 3.1-.5 1.1-.8 2.1-.9 3.2 0 .4.2.9.3 1h.3s.2-.1.4-.1c5.5-1.2 10.1-5 12.4-10.1.3-1-.4-2.6-2.5-3.7s-3.4-2.8-3.1-4.4c.1-.6.6-2 3-2.4 1.2-.2 2.1-.7 2.6-1.5.4-.6.5-1.3.3-2-2.7-6.5-9-11-16.4-11-.7 0-1.4 0-2 .1-.4 0-.6.3-.6.6V3.6c.1.3.2.8.6 1 .4.2 1 0 1.5-.2 2-.8 4.8-.8 6.1.8.8 1 1.2 2.3 1 3.5-.1.9-.6 2.1-2.1 3-3 1.9-3 2.1-2.8 3.7 0 .4.1.7.3 1 .2.6.7 2.4-1 2.9-1.4.6-2.3-.3-3.3-1.3l-.8-.8c-.3-.2-1-.2-1.6.2-.8.6-.9 1.7-.4 3m.9 19.5C7.1 38 .3 29.9.3 20.3.3 12.2 5.1 5.2 12 2.1l.1-.1h.1C14.7.9 17.4.3 20.3.3c8.4 0 15.5 5.1 18.5 12.4 0 .1 0 .1.1.2.9 2.3 1.4 4.8 1.4 7.4 0 2.9-.6 5.6-1.7 8.1v.1c0 .1 0 .1-.1.1-2.6 5.7-7.7 9.9-14 11.2h-.1c-1.3.3-2.7.4-4.1.4-1.3 0-2.5-.1-3.8-.4h-.1c-.1.1-.1.1-.2.1M12 8.4c-1.2 1-2.4 2-3 4.1-.6 2.4-.8 5.5 2.8 8.5.4.3.7.7.9 1 .7 1.1 1 2.4 1.2 4 .2 1.3.5 2.8 1.1 4.7.8 2.5 1.8 4.2 3.1 5.7.4.5.7 1 .8 1.5.7.1 1.5.1 2.2 0-.2-.5-.2-1.1-.2-1.5.2-1.3.5-2.6 1.1-3.8.6-1.4 1.7-2.7 2.7-3.7 1-1.2 2-2.3 1.9-3.1 0-.4-.4-.9-1-1.4-1.7-1.4-4.1-1.3-6.4-1.2-2.3.1-4.6.2-5.7-1.4l-.3-.6c-1.2-2.8-.2-4.8 1.2-5.8s3.3-1 4.4 0c.3.3.6.6.9.8l.2.2c-.1-.3-.1-.6-.2-.9-.3-3.1.8-3.9 3.9-5.8.6-.4 1-.9 1.1-1.5.1-.7-.2-1.3-.5-1.7-.5-.5-2-.7-3.4-.1-1.6.7-2.8.4-3.4.1-.9-.5-1.6-1.4-1.8-2.6v-.2c0-.1-.1-.3-.1-.5-.1 0-.2 0-.3.1 0 .3 0 .6-.2.9-.4 2.1-1.8 3.2-3 4.2m-1.5-1.7c.9-.8 1.6-1.4 2-2.3-5.9 2.9-10 8.9-10 16 0 8.3 5.7 15.3 13.5 17.2-1.3-1.6-2.3-3.5-3.1-6-.7-2-.9-3.7-1.2-5-.3-2-.5-2.9-1.4-3.7-3.5-3-4.6-6.5-3.5-10.9.7-2.9 2.4-4.2 3.7-5.3" />
	</symbol>

	<symbol id="mld-location-filter-c" viewBox="0 0 43 43">
		<path fill="#ffc023" d="M37.7 24c.3-1.2.4-2.4.4-3.7 0-1-.1-1.9-.2-2.9-.7.8-1.8 1.5-3.6 1.9-.7.1-1.1.4-1.1.5-.1.3.4 1.3 1.9 2 1.1.7 2 1.4 2.6 2.2m-22.4-3.6c.3.8 1.7.7 3.8.6H21c2 0 4.2.3 6 1.7 1.1.9 1.7 1.9 1.8 3 .1 1.8-1.1 3.3-2.5 4.8-.9 1-1.8 2-2.3 3.1-.5 1.1-.8 2.1-.9 3.2 0 .4.2.9.3 1h.3s.2-.1.4-.1c5.5-1.2 10.1-5 12.4-10.1.3-1-.4-2.6-2.5-3.7s-3.4-2.8-3.1-4.4c.1-.6.6-2 3-2.4 1.2-.2 2.1-.7 2.6-1.5.4-.6.5-1.3.3-2-2.7-6.5-9-11-16.4-11-.7 0-1.4 0-2 .1-.4 0-.6.3-.6.6V3.6c.1.3.2.8.6 1 .4.2 1 0 1.5-.2 2-.8 4.8-.8 6.1.8.8 1 1.2 2.3 1 3.5-.1.9-.6 2.1-2.1 3-3 1.9-3 2.1-2.8 3.7 0 .4.1.7.3 1 .2.6.7 2.4-1 2.9-1.4.6-2.3-.3-3.3-1.3l-.8-.8c-.3-.2-1-.2-1.6.2-.8.6-.9 1.7-.4 3m.9 19.5C7.1 38 .3 29.9.3 20.3.3 12.2 5.1 5.2 12 2.1l.1-.1h.1C14.7.9 17.4.3 20.3.3c8.4 0 15.5 5.1 18.5 12.4 0 .1 0 .1.1.2.9 2.3 1.4 4.8 1.4 7.4 0 2.9-.6 5.6-1.7 8.1v.1c0 .1 0 .1-.1.1-2.6 5.7-7.7 9.9-14 11.2h-.1c-1.3.3-2.7.4-4.1.4-1.3 0-2.5-.1-3.8-.4h-.1c-.1.1-.1.1-.2.1M12 8.4c-1.2 1-2.4 2-3 4.1-.6 2.4-.8 5.5 2.8 8.5.4.3.7.7.9 1 .7 1.1 1 2.4 1.2 4 .2 1.3.5 2.8 1.1 4.7.8 2.5 1.8 4.2 3.1 5.7.4.5.7 1 .8 1.5.7.1 1.5.1 2.2 0-.2-.5-.2-1.1-.2-1.5.2-1.3.5-2.6 1.1-3.8.6-1.4 1.7-2.7 2.7-3.7 1-1.2 2-2.3 1.9-3.1 0-.4-.4-.9-1-1.4-1.7-1.4-4.1-1.3-6.4-1.2-2.3.1-4.6.2-5.7-1.4l-.3-.6c-1.2-2.8-.2-4.8 1.2-5.8s3.3-1 4.4 0c.3.3.6.6.9.8l.2.2c-.1-.3-.1-.6-.2-.9-.3-3.1.8-3.9 3.9-5.8.6-.4 1-.9 1.1-1.5.1-.7-.2-1.3-.5-1.7-.5-.5-2-.7-3.4-.1-1.6.7-2.8.4-3.4.1-.9-.5-1.6-1.4-1.8-2.6v-.2c0-.1-.1-.3-.1-.5-.1 0-.2 0-.3.1 0 .3 0 .6-.2.9-.4 2.1-1.8 3.2-3 4.2m-1.5-1.7c.9-.8 1.6-1.4 2-2.3-5.9 2.9-10 8.9-10 16 0 8.3 5.7 15.3 13.5 17.2-1.3-1.6-2.3-3.5-3.1-6-.7-2-.9-3.7-1.2-5-.3-2-.5-2.9-1.4-3.7-3.5-3-4.6-6.5-3.5-10.9.7-2.9 2.4-4.2 3.7-5.3" />
	</symbol>

	<symbol id="mld-noad" viewBox="0 0 40 40">
		<path fill="currentColor" d="M21.6,27.8V12.9h4.6c2.2,0,4.1,0.7,5.6,2c1.5,1.3,2.3,3.1,2.3,5.3c0,2.3-0.8,4.2-2.3,5.5c-1.5,1.4-3.4,2.1-5.7,2.1C26.1,27.8,21.6,27.8,21.6,27.8z M26,24.8c1.5,0,2.7-0.4,3.5-1.2c0.8-0.8,1.2-1.9,1.2-3.4s-0.4-2.5-1.2-3.2c-0.9-0.7-2-1.1-3.4-1.1h-1.3v8.9C24.8,24.8,26,24.8,26,24.8z M18,27.8l-1.4-3.7H12l-1.3,3.7H7.2l5.7-14.9h2.9l5.7,14.9H18z M15.5,21.1l-1.2-3.3l-1.2,3.3H15.5z"/>
		<path fill="#ffffff" d="M20,0C9,0,0,9,0,20s9,20,20,20s20-9,20-20S31,0,20,0z M20,36.5c-4,0-7.9-1.5-10.9-4.2L32.3,9.1c2.7,3,4.2,6.9,4.2,10.9C36.5,29.1,29.1,36.5,20,36.5z M20,3.5c3.5,0,7,1.2,9.8,3.3l-23.1,23C4.6,27,3.5,23.5,3.5,20C3.5,10.9,10.9,3.5,20,3.5z"/>
	</symbol>

	<symbol id="mld-noad-b" viewBox="-2 -2 28 28">
		<path d="M11.5 0C17.8507 0 23 5.14925 23 11.5C23 17.8507 17.8507 23 11.5 23C5.14925 23 0 17.8507 0 11.5C0 5.14925 5.14925 0 11.5 0ZM19.1238 5.13495L5.13495 19.1238C6.85137 20.5684 9.08271 21.4266 11.5 21.4266C16.9925 21.4266 21.4266 16.9925 21.4266 11.5C21.4266 9.08271 20.5684 6.85137 19.1238 5.13495ZM3.89055 17.8794L17.8794 3.89055C16.1486 2.4459 13.9316 1.57338 11.5 1.57338C6.02177 1.57338 1.57338 6.02177 1.57338 11.5C1.57338 13.9316 2.4459 16.1486 3.89055 17.8794Z" id="Shape" fill="#000000" fill-rule="evenodd" stroke="#000000" stroke-width="1" />
	</symbol>

	<symbol id="mld-noad-c" viewBox="-2 -2 28 28">
		<path d="M11.5 0C17.8507 0 23 5.14925 23 11.5C23 17.8507 17.8507 23 11.5 23C5.14925 23 0 17.8507 0 11.5C0 5.14925 5.14925 0 11.5 0ZM19.1238 5.13495L5.13495 19.1238C6.85137 20.5684 9.08271 21.4266 11.5 21.4266C16.9925 21.4266 21.4266 16.9925 21.4266 11.5C21.4266 9.08271 20.5684 6.85137 19.1238 5.13495ZM3.89055 17.8794L17.8794 3.89055C16.1486 2.4459 13.9316 1.57338 11.5 1.57338C6.02177 1.57338 1.57338 6.02177 1.57338 11.5C1.57338 13.9316 2.4459 16.1486 3.89055 17.8794Z" id="Shape" fill="#ffc023" fill-rule="evenodd" stroke="#ffc023" stroke-width="1" />
	</symbol>

	<symbol id="mld-chat-badge" viewBox="0 0  99 94.2">
		<path fill="#ffffff" d="M89.5,18l-18.2-1L64.8,0L49.5,9.9L34.2,0l-6.5,17L9.5,18l4.7,17.6L0,47.1l14.1,11.5L9.5,76.2l18.2,1l6.5,17l15.3-9.9l15.3,9.9l6.5-17l18.2-1l-4.7-17.6L99,47.1L84.9,35.6L89.5,18z M88.2,47.1l-11.1,9l3.7,13.8l-14.2,0.8L61.5,84l-12-7.8l-12,7.8l-5.1-13.3l-14.2-0.8l3.7-13.8l-11.1-9l11.1-9l-3.7-13.8l14.2-0.8l5.1-13.3l12,7.8l12-7.8l5.1,13.3l14.2,0.8l-3.7,13.8C77.1,38.1,88.2,47.1,88.2,47.1z"/>
		<path fill="currentColor" d="M47.1,63.3L35.7,34h7.1L51,56.6L59.1,34h7.1L54.9,63.3H47.1z"/>
	</symbol>

	<symbol id="mld-chat-badge-b" viewBox="0 0  99 94.2">
		<path fill="#000" d="M89.5,18l-18.2-1L64.8,0L49.5,9.9L34.2,0l-6.5,17L9.5,18l4.7,17.6L0,47.1l14.1,11.5L9.5,76.2l18.2,1l6.5,17l15.3-9.9l15.3,9.9l6.5-17l18.2-1l-4.7-17.6L99,47.1L84.9,35.6L89.5,18z M88.2,47.1l-11.1,9l3.7,13.8l-14.2,0.8L61.5,84l-12-7.8l-12,7.8l-5.1-13.3l-14.2-0.8l3.7-13.8l-11.1-9l11.1-9l-3.7-13.8l14.2-0.8l5.1-13.3l12,7.8l12-7.8l5.1,13.3l14.2,0.8l-3.7,13.8C77.1,38.1,88.2,47.1,88.2,47.1z"/>
		<path fill="currentColor" d="M47.1,63.3L35.7,34h7.1L51,56.6L59.1,34h7.1L54.9,63.3H47.1z"/>
	</symbol>

	<symbol id="mld-chat-badge-c" viewBox="0 0  99 94.2">
		<path fill="#ffc023" d="M89.5,18l-18.2-1L64.8,0L49.5,9.9L34.2,0l-6.5,17L9.5,18l4.7,17.6L0,47.1l14.1,11.5L9.5,76.2l18.2,1l6.5,17l15.3-9.9l15.3,9.9l6.5-17l18.2-1l-4.7-17.6L99,47.1L84.9,35.6L89.5,18z M88.2,47.1l-11.1,9l3.7,13.8l-14.2,0.8L61.5,84l-12-7.8l-12,7.8l-5.1-13.3l-14.2-0.8l3.7-13.8l-11.1-9l11.1-9l-3.7-13.8l14.2-0.8l5.1-13.3l12,7.8l12-7.8l5.1,13.3l14.2,0.8l-3.7,13.8C77.1,38.1,88.2,47.1,88.2,47.1z"/>
		<path fill="#ffc023" d="M47.1,63.3L35.7,34h7.1L51,56.6L59.1,34h7.1L54.9,63.3H47.1z"/>
	</symbol>

	<symbol id="mld-gender-filter" viewBox="0 0 50.7 54">
		<path fill="currentColor" d="M27.9,44.5c0.4-0.3,0.8-0.5,1.2-0.8c0.1-0.1,0.3-0.2,0.4-0.3c0.1-0.1,0.3-0.2,0.4-0.3c0.3-0.3,0.6-0.5,0.9-0.8c0.2-0.2,0.4-0.4,0.5-0.6c4.6-5.6,4.3-13.8-0.7-19c-0.2-0.2-0.4-0.4-0.6-0.6c-0.9-0.8-1.9-1.5-3-2.1c-2-1.1-4.3-1.7-6.6-1.7c-0.1,0-0.2,0-0.2,0c-0.3,0-0.6,0-0.9,0c-0.1,0-0.2,0-0.3,0c-0.3,0-0.6,0.1-0.9,0.1c-0.1,0-0.3,0-0.4,0.1c-0.3,0-0.5,0.1-0.8,0.2c-0.1,0-0.2,0.1-0.4,0.1c-0.4,0.1-0.9,0.3-1.3,0.4c-0.2,0.1-0.4,0.2-0.7,0.3c-0.2,0.1-0.3,0.2-0.5,0.2c-0.2,0.1-0.4,0.2-0.7,0.3c-0.2,0.1-0.3,0.2-0.5,0.3c-0.2,0.1-0.5,0.3-0.7,0.4c-0.1,0.1-0.3,0.2-0.4,0.3c-0.2,0.2-0.5,0.4-0.7,0.6c-0.1,0.1-0.2,0.2-0.3,0.3c-0.3,0.3-0.7,0.6-1,1C4.8,27.9,4.5,35.9,9,41.4l-2.9,3.1l-2.3-2.1C3,41.7,1.7,41.7,1,42.6s-0.7,2.1,0.1,2.9l2.3,2.1l-2.8,3c-0.8,0.8-0.7,2.1,0.1,2.9c0.8,0.8,2.1,0.7,2.9-0.1l2.8-3l2.3,2.1c0.8,0.8,2.1,0.7,2.9-0.1c0.8-0.8,0.7-2.1-0.1-2.9l-2.3-2.1l2.9-3.1c0.2,0.1,0.4,0.2,0.5,0.4c0.1,0.1,0.3,0.2,0.5,0.3c0.2,0.1,0.5,0.3,0.7,0.4c0.2,0.1,0.3,0.2,0.5,0.2c0.2,0.1,0.5,0.2,0.7,0.3c0.2,0.1,0.4,0.1,0.5,0.2c0.2,0.1,0.5,0.1,0.7,0.2c0.4,0.1,0.9,0.2,1.3,0.3c0.1,0,0.2,0.1,0.4,0.1c0.3,0,0.6,0.1,0.8,0.1c0.1,0,0.3,0,0.4,0c0.3,0,0.6,0,0.9,0c0.1,0,0.2,0,0.3,0c0.3,0,0.6,0,0.9,0c0.1,0,0.2,0,0.2,0C23.7,46.5,25.9,45.7,27.9,44.5z M12.7,25.4c0.2-0.2,0.4-0.4,0.7-0.7c0.1-0.1,0.1-0.1,0.2-0.2c0.2-0.1,0.4-0.3,0.5-0.4c0.1-0.1,0.1-0.1,0.2-0.2c0.2-0.2,0.5-0.3,0.8-0.5c0,0,0.1,0,0.1,0c0.2-0.1,0.5-0.3,0.7-0.4c0.1,0,0.2-0.1,0.3-0.1c0.2-0.1,0.4-0.2,0.6-0.2c0.1,0,0.2-0.1,0.3-0.1c0.3-0.1,0.5-0.2,0.8-0.2c0.1,0,0.1,0,0.2,0c0.2,0,0.4-0.1,0.6-0.1c0.1,0,0.2,0,0.4,0c0.2,0,0.4,0,0.5,0c0.1,0,0.2,0,0.4,0c0.3,0,0.5,0,0.8,0c0.1,0,0.2,0,0.4,0c0.2,0,0.4,0,0.5,0.1c0.1,0,0.3,0,0.4,0.1c0.2,0,0.3,0.1,0.5,0.1c0.1,0,0.3,0.1,0.4,0.1c0.3,0.1,0.5,0.1,0.8,0.2c3.4,1.2,6,4.2,6.6,7.7c0.7,3.6-0.6,7.2-3.3,9.6c0,0-0.1,0.1-0.1,0.1c-0.2,0.2-0.5,0.4-0.7,0.6c0,0,0,0,0,0c-0.5,0.4-1.1,0.7-1.8,1c-0.2,0.1-0.5,0.2-0.7,0.3c-0.1,0-0.3,0.1-0.4,0.1c-0.2,0-0.3,0.1-0.5,0.1c-0.1,0-0.3,0.1-0.4,0.1c-0.2,0-0.3,0.1-0.5,0.1c-0.1,0-0.2,0-0.4,0.1c-0.3,0-0.5,0.1-0.8,0.1c-0.1,0-0.2,0-0.4,0c-0.2,0-0.4,0-0.5,0c-0.1,0-0.2,0-0.4,0c-0.2,0-0.4,0-0.6-0.1c-0.1,0-0.1,0-0.2,0c-0.3,0-0.6-0.1-0.8-0.2c-0.1,0-0.2-0.1-0.3-0.1c-0.2-0.1-0.4-0.1-0.6-0.2c-0.1,0-0.2-0.1-0.3-0.1c-0.3-0.1-0.5-0.2-0.7-0.3c0,0-0.1,0-0.1,0c-0.3-0.1-0.5-0.3-0.8-0.4c-0.1,0-0.2-0.1-0.2-0.1c-0.2-0.1-0.4-0.3-0.6-0.4c-0.1-0.1-0.1-0.1-0.2-0.2c-0.2-0.2-0.5-0.4-0.7-0.6C9,36.1,8.8,29.6,12.7,25.4z"/>
		<path fill="#ffffff" d="M48.7,0h-8.2c-1.1,0-2,0.9-2,2c0,1.1,0.9,2,2,2h3.3l-5,4.9c-4.9-3.6-11.6-3.7-16.7-0.3c-5,3.5-7.3,9.8-5.7,15.7C18.1,30.3,24,34.6,30.1,35c0.4-1.3,0.4-2.8,0.2-4.2c-5.3,0-9.7-4-10.2-9.2c-0.5-5.2,3-10,8.1-11.1c5.1-1.1,10.3,1.9,11.8,7c1.6,5-0.9,10.4-5.7,12.5c0.1,0.3,0.2,1.2,0.2,1.5c0,1.3,0,1.9-0.1,2.8c4.6-1.2,7.8-4.4,9.4-8.9c1.6-4.5,0.8-9.5-2-13.3l4.9-5v3.3c0,1.1,0.9,2,2,2c1.1,0,2-0.9,2-2V2C50.7,0.9,49.8,0,48.7,0z"/>
	</symbol>

	<symbol id="mld-private" viewBox="-5 -2 43 55">
		<path fill="#ffffff" d="M28.9,43.7c0,0.5-0.4,1-1,1H9.6c-0.5,0-1-0.4-1-1v-19c0-0.5,0.4-1,1-1h18.3c0.5,0,1,0.4,1,1V43.7z"/>
		<path fill="currentColor" d="M36,18.5h-3.1v-4.1C32.9,6.5,26.4,0,18.5,0S4.1,6.5,4.1,14.4v4.1H1c-0.6,0-1,0.5-1,1v25.7c0,2.3,1.8,4.1,4.1,4.1h28.8c2.3,0,4.1-1.8,4.1-4.1V19.5C37,19,36.5,18.5,36,18.5z M21.6,40c0,0.3-0.1,0.6-0.3,0.8c-0.2,0.2-0.5,0.3-0.8,0.3h-4.1c-0.3,0-0.6-0.1-0.8-0.3s-0.3-0.5-0.3-0.8l0.6-5.8c-1.1-0.8-1.7-2-1.7-3.3c0-2.3,1.8-4.1,4.1-4.1s4.1,1.8,4.1,4.1c0,1.3-0.6,2.5-1.7,3.3L21.6,40z M26.7,18.5H10.3v-4.1c0-4.5,3.7-8.2,8.2-8.2s8.2,3.7,8.2,8.2V18.5z"/>
	</symbol>

	<symbol id="mld-reconnect"
		xmlns:xlink="http://www.w3.org/1999/xlink" viewBox="0 0 40 40">
		<circle cx="19.5" cy="19.5" r="18.5" fill="none" stroke="#ffffff" stroke-width="3" stroke-miterlimit="10"/>
		<path fill="none" stroke="currentColor" stroke-width="3" stroke-miterlimit="10" d="M19.5 27.7l-8.2-8.2 8.2-8.2M11.3 19.5h16.4"/>
	</symbol>

	<symbol id="mld-reconnect-b"
		xmlns:xlink="http://www.w3.org/1999/xlink" viewBox="0 0 40 40">
		<circle cx="19.5" cy="19.5" r="18.5" fill="none" stroke="#000" stroke-width="3" stroke-miterlimit="10"/>
		<path fill="none" stroke="currentColor" stroke-width="3" stroke-miterlimit="10" d="M19.5 27.7l-8.2-8.2 8.2-8.2M11.3 19.5h16.4"/>
	</symbol>

	<symbol id="mld-reconnect-c"
		xmlns:xlink="http://www.w3.org/1999/xlink" viewBox="0 0 40 40">
		<circle cx="19.5" cy="19.5" r="18.5" fill="none" stroke="#ffc023" stroke-width="3" stroke-miterlimit="10"/>
		<path fill="none" stroke="#ffc023" stroke-width="3" stroke-miterlimit="10" d="M19.5 27.7l-8.2-8.2 8.2-8.2M11.3 19.5h16.4"/>
	</symbol>

	<symbol id="mld-support"
		xmlns:xlink="http://www.w3.org/1999/xlink" viewBox="0 0 512 512">
		<path d="M62,234.3c-12.9,0-23.3,10.4-23.3,23.3v108.6c0,12.9,10.4,23.3,23.3,23.3h69.8l0-155.2H62z"/>
		<path d="M450.2,389.5c12.9,0,23.3-10.4,23.3-23.3V257.6c0-12.9-10.4-23.3-23.3-23.3h-69.8l0,155.2H450.2z"/>
		<path d="M203.4,440.9v20.7c0,4.1,3.3,7.5,7.5,7.5h65.3c4.1,0,7.5-3.4,7.5-7.5l0-20.7c0-4.1-3.4-7.5-7.5-7.5h-65.3C206.8,433.4,203.4,436.8,203.4,440.9z"/>
		<path fill="currentColor" d="M457.6,219.6c0-0.3,0-0.5,0-0.8H442h-6.7l0-0.3c-1.8-48.2-21.3-93.2-54.8-126.8C346.9,57.9,302.7,39.3,256,39.3c-46.7,0-90.9,18.6-124.6,52.4c-33.5,33.6-52.9,78.7-54.8,126.8l0,0.3H70c0,0,0,0,0,0H54.5c0,0.3,0,0.5,0,0.8c-18.1,3.6-31.2,19.5-31.2,38v108.6c0,21.4,17.4,38.8,38.8,38.8h11.9v0c0,31.9,26,57.9,57.9,57.9h68.1c0.7,5.5,5.4,9.7,11,9.7h65.3c3,0,5.8-1.2,7.9-3.3c2.1-2.1,3.3-4.9,3.3-7.9l0-20.7c0-6.1-5-11.1-11.1-11.1h-65.3c-5.9,0-10.7,4.6-11.1,10.4h-68c-19.4,0-35.1-15.8-35.2-35.2h11.9c0,0,0,0,0,0h23.3c8.6,0,15.5-7,15.5-15.5V234.3c0-8.6-7-15.5-15.5-15.5h-25.4c3.6-84,69.3-149.8,149.6-149.8c80.3,0,146,65.8,149.6,149.8h-25.4c-8.6,0-15.5,7-15.5,15.5v155.2c0,8.6,7,15.5,15.5,15.5H450c21.4,0,38.8-17.4,38.8-38.8V257.6C488.8,239.1,475.7,223.2,457.6,219.6z M207.1,440.9c0-2.1,1.7-3.8,3.8-3.8h65.3c2.1,0,3.8,1.7,3.8,3.8l0,20.7c0,1-0.4,2-1.1,2.7c-0.7,0.7-1.7,1.1-2.7,1.1h-65.3c-2.1,0-3.8-1.7-3.8-3.8V440.9z M131.9,234.3l0,155.2H62c-12.9,0-23.3-10.4-23.3-23.3V257.6c0-12.9,10.4-23.3,23.3-23.3H131.9z M473.3,366.2c0,12.9-10.4,23.3-23.3,23.3h-69.8V234.3H450c12.9,0,23.3,10.4,23.3,23.3V366.2z"/>
	</symbol>

	<symbol id="mld-support-c"
		xmlns:xlink="http://www.w3.org/1999/xlink" viewBox="0 0 512 512">
		<path fill="#ffc023" d="M457.6,219.6c0-0.3,0-0.5,0-0.8H442h-6.7l0-0.3c-1.8-48.2-21.3-93.2-54.8-126.8C346.9,57.9,302.7,39.3,256,39.3c-46.7,0-90.9,18.6-124.6,52.4c-33.5,33.6-52.9,78.7-54.8,126.8l0,0.3H70c0,0,0,0,0,0H54.5c0,0.3,0,0.5,0,0.8c-18.1,3.6-31.2,19.5-31.2,38v108.6c0,21.4,17.4,38.8,38.8,38.8h11.9v0c0,31.9,26,57.9,57.9,57.9h68.1c0.7,5.5,5.4,9.7,11,9.7h65.3c3,0,5.8-1.2,7.9-3.3c2.1-2.1,3.3-4.9,3.3-7.9l0-20.7c0-6.1-5-11.1-11.1-11.1h-65.3c-5.9,0-10.7,4.6-11.1,10.4h-68c-19.4,0-35.1-15.8-35.2-35.2h11.9c0,0,0,0,0,0h23.3c8.6,0,15.5-7,15.5-15.5V234.3c0-8.6-7-15.5-15.5-15.5h-25.4c3.6-84,69.3-149.8,149.6-149.8c80.3,0,146,65.8,149.6,149.8h-25.4c-8.6,0-15.5,7-15.5,15.5v155.2c0,8.6,7,15.5,15.5,15.5H450c21.4,0,38.8-17.4,38.8-38.8V257.6C488.8,239.1,475.7,223.2,457.6,219.6z M207.1,440.9c0-2.1,1.7-3.8,3.8-3.8h65.3c2.1,0,3.8,1.7,3.8,3.8l0,20.7c0,1-0.4,2-1.1,2.7c-0.7,0.7-1.7,1.1-2.7,1.1h-65.3c-2.1,0-3.8-1.7-3.8-3.8V440.9z M131.9,234.3l0,155.2H62c-12.9,0-23.3-10.4-23.3-23.3V257.6c0-12.9,10.4-23.3,23.3-23.3H131.9z M473.3,366.2c0,12.9-10.4,23.3-23.3,23.3h-69.8V234.3H450c12.9,0,23.3,10.4,23.3,23.3V366.2z"/>
	</symbol>

	<symbol id="mld-safe"
		xmlns:xlink="http://www.w3.org/1999/xlink" viewBox="0 0 512 512">
		<path stroke="currentColor" stroke-width="17" stroke-miterlimit="10" d="M459.4,87.9c-30.7,0-55.6-25-55.6-55.6
			c0-9.8-8-17.8-17.8-17.8H126c-9.8,0-17.8,8-17.8,17.8c0,30.7-25,55.6-55.6,55.6c-9.8,0-17.8,8-17.8,17.8V189
			c0,67,20.2,131.5,58.3,186.5c38.2,55,91.5,96.5,154.2,120l2.4,0.9c2,0.7,4.1,1.1,6.2,1.1s4.2-0.4,6.2-1.1l2.4-0.9
			c62.7-23.5,116.1-65,154.2-120c38.2-55,58.3-119.5,58.3-186.5v-83.3C477.2,95.9,469.2,87.9,459.4,87.9z M420.6,139.5l0,49.5
			c0,55.4-16.7,108.7-48.3,154.3C343.2,385.3,303,418,256,438c-47-20-87.2-52.7-116.3-94.8c-31.6-45.5-48.3-98.9-48.3-154.3v-49.5
			c32.4-10.4,58.1-36,68.4-68.4h192.3C362.5,103.5,388.2,129.2,420.6,139.5z"/>
		<path fill="currentColor" d="M308.6,172.8l-72.9,72.9l-32.4-32.4l-46.7,46.7l79.1,79.1l119.6-119.6L308.6,172.8z"/>
	</symbol>

	<symbol id="mld-lock"
		xmlns="http://www.w3.org/2000/svg" viewBox="0 0 19 24">
		<path fill="#fabe3a" d="M9.5 12C8.1 12 7 13.1 7 14.5c0 .7.3 1.3.8 1.8l-.3 2.6c0 .2 0 .5.2.8.2.1.5.3.8.3h2c.3 0 .6-.2.8-.3.2-.2.2-.6.2-.8l-.3-2.5c.5-.5.8-1.1.8-1.8 0-1.5-1.1-2.6-2.5-2.6zm.9 3.7l-.2.2.3 3v.1H8.6h-.1l.3-3.1-.2-.2c-.4-.3-.6-.7-.6-1.2 0-.8.7-1.5 1.5-1.5s1.5.7 1.5 1.5c0 .5-.2.9-.6 1.2z"/>
		<path d="M18 8.6H1c-.6 0-1 .4-1 1v12C0 22.9 1.1 24 2.5 24h14c1.4 0 2.5-1.1 2.5-2.4v-12c0-.6-.4-1-1-1zm0 13c0 .7-.7 1.4-1.5 1.4h-14c-.8 0-1.5-.7-1.5-1.4v-12h17v12z"/>
		<path fill="#fabe3a" d="M9.5 0C5.4 0 2 3.2 2 7.2v1.4h1V7.2C3 3.8 5.9 1 9.5 1S16 3.8 16 7.2v1.4h1V7.2c0-4-3.4-7.2-7.5-7.2z"/>
		<path fill="#fabe3a" d="M9.5 3C7 3 5 4.7 5 6.8v1.8h1V6.8C6 5.3 7.6 4 9.5 4S13 5.3 13 6.8v1.8h1V6.8C14 4.7 12 3 9.5 3z"/>
	</symbol>

	<symbol id="mld-rear-cam"
		xmlns:xlink="http://www.w3.org/1999/xlink" viewBox="0 0 38 30">
		<path style="fill:#FFFFFF;" d="M31.2,10.3c-0.5-0.3-1.1-0.1-1.4,0.4c-0.3,0.5-0.1,1.1,0.4,1.3c2.3,1.2,3.7,2.7,3.7,4.3c0,2.6-3.9,5.1-9.6,6.2c-0.6,0.1-0.9,0.6-0.8,1.1c0.1,0.5,0.7,0.9,1.2,0.8c6.8-1.3,11.3-4.5,11.3-8.1C36,14,34.3,11.9,31.2,10.3"/>
		<path style="fill:#FFFFFF;" d="M13.4,23.8v3.3c0,0.4,0.2,0.7,0.5,0.9c0.3,0.2,0.7,0.2,1.1,0l6.2-3.9c0.3-0.2,0.5-0.5,0.5-0.8c0-0.3-0.2-0.6-0.5-0.8L15,18.5c-0.3-0.2-0.7-0.2-1.1,0c-0.3,0.2-0.5,0.5-0.5,0.9v2.5c-6-1-10.4-3.6-10.4-6.4c0-1.5,1.3-3.1,3.7-4.3c0.5-0.3,0.7-0.9,0.4-1.3C6.8,9.3,6.2,9.1,5.7,9.4c-3,1.6-4.7,3.7-4.7,6C1,19.4,6,22.7,13.4,23.8"/>
		<path fill="currentColor" d="M21.3,10.1c0,1.3-1.1,2.4-2.5,2.4c-1.4,0-2.5-1.1-2.5-2.4c0-1.3,1.1-2.4,2.5-2.4C20.1,7.7,21.3,8.8,21.3,10.1M18.8,14.5c-2.6,0-4.7-2-4.7-4.5c0-2.5,2.1-4.5,4.7-4.5c2.6,0,4.7,2,4.7,4.5C23.5,12.5,21.4,14.5,18.8,14.5 M26.6,3.7h-3V3.4c0-1.3-1.1-2.4-2.5-2.4h-4.7c-1.4,0-2.5,1.1-2.5,2.4v0.3h-3c-1.4,0-2.5,1.1-2.5,2.4v8.6c0,1.3,1.1,2.4,2.5,2.4h15.6c1.4,0,2.5-1.1,2.5-2.4V6.1C29.1,4.7,28,3.7,26.6,3.7"/>
	</symbol>

	<symbol id="mld-hide-location"
		xmlns:xlink="http://www.w3.org/1999/xlink" viewBox="0 0 30 49">
		<circle fill="#ffffff" cx="14.9" cy="15.4" r="14.1"/>
		<path fill="currentColor" d="M24.6,22.5C28,18.6,28.5,11,23.2,6.2c-5-4.6-12.4-3.7-15.5-0.7C13.3,11.1,18.9,16.8,24.6,22.5M5.1,7.9C1.7,11.8,1.5,19.3,6.5,24c4.9,4.6,12.3,3.9,15.8,0.7C16.6,19.2,10.9,13.6,5.1,7.9 M14.9,0.2C23,0.3,29.6,6.6,29.8,14.7c0.1,3.5-1,6.7-3,9.7c-2.8,4-5.6,8.1-8.3,12.2c-0.8,1.3-1.4,2.7-2.1,4.1c-0.3,0.6-0.6,1.2-1.5,1.2s-1.3-0.6-1.6-1.2C11,35.3,7.4,30.7,4,26c-1.7-2.5-3.2-5-3.8-8c-1.7-7.8,4-16.1,11.9-17.4C13.1,0.4,14,0.3,14.9,0.2"/>
		<path fill="currentColor" d="M14.9,45.8c1.3,0.3,2.6,0.6,3.9,0.9c0.3,0.1,0.7,0.4,0.7,0.7c0,0.2-0.4,0.6-0.7,0.7c-2.6,1-5.3,1-7.9,0c-0.3-0.1-0.7-0.5-0.6-0.6c0.1-0.3,0.4-0.6,0.7-0.7C12.3,46.4,13.6,46.1,14.9,45.8"/>
		<path fill="currentColor" d="M15.6,20.6c-2.2,0.2-4-0.3-5.7-1.2c-1.7-0.9-3.1-2.2-4.1-3.8c-0.2-0.2-0.2-0.8,0-1c0.5-0.7,1.1-1.4,1.4-1.8C10,15.4,12.7,17.9,15.6,20.6"/>
		<path fill="currentColor" d="M14.3,9.6c2.7-0.2,5.1,0.6,7.2,2.2c0.4,0.3,0.7,0.6,1,0.9c2.2,2.2,2.2,2.9-0.2,4.8C19.6,14.9,17,12.2,14.3,9.6"/>
	</symbol>

	<symbol id="mld-hide-location-c"
		xmlns:xlink="http://www.w3.org/1999/xlink" viewBox="0 0 30 49">
		<path fill="#ffc023" d="M24.6,22.5C28,18.6,28.5,11,23.2,6.2c-5-4.6-12.4-3.7-15.5-0.7C13.3,11.1,18.9,16.8,24.6,22.5M5.1,7.9C1.7,11.8,1.5,19.3,6.5,24c4.9,4.6,12.3,3.9,15.8,0.7C16.6,19.2,10.9,13.6,5.1,7.9 M14.9,0.2C23,0.3,29.6,6.6,29.8,14.7c0.1,3.5-1,6.7-3,9.7c-2.8,4-5.6,8.1-8.3,12.2c-0.8,1.3-1.4,2.7-2.1,4.1c-0.3,0.6-0.6,1.2-1.5,1.2s-1.3-0.6-1.6-1.2C11,35.3,7.4,30.7,4,26c-1.7-2.5-3.2-5-3.8-8c-1.7-7.8,4-16.1,11.9-17.4C13.1,0.4,14,0.3,14.9,0.2"/>
		<path fill="#ffc023" d="M14.9,45.8c1.3,0.3,2.6,0.6,3.9,0.9c0.3,0.1,0.7,0.4,0.7,0.7c0,0.2-0.4,0.6-0.7,0.7c-2.6,1-5.3,1-7.9,0c-0.3-0.1-0.7-0.5-0.6-0.6c0.1-0.3,0.4-0.6,0.7-0.7C12.3,46.4,13.6,46.1,14.9,45.8"/>
		<path fill="#ffc023" d="M15.6,20.6c-2.2,0.2-4-0.3-5.7-1.2c-1.7-0.9-3.1-2.2-4.1-3.8c-0.2-0.2-0.2-0.8,0-1c0.5-0.7,1.1-1.4,1.4-1.8C10,15.4,12.7,17.9,15.6,20.6"/>
		<path fill="#ffc023" d="M14.3,9.6c2.7-0.2,5.1,0.6,7.2,2.2c0.4,0.3,0.7,0.6,1,0.9c2.2,2.2,2.2,2.9-0.2,4.8C19.6,14.9,17,12.2,14.3,9.6"/>
	</symbol>

	<symbol id="mld-intro"
		xmlns:xlink="http://www.w3.org/1999/xlink" viewBox="-5 -5 130 130">
		<path fill="currentColor" d="M26.8,94.9c-3.2,0-6,0.1-8.8,0C8.4,94.4,2.1,88.1,2.1,78.5c-0.1-20-0.1-40,0-60C2.1,8.4,8.6,2.1,18.8,2c27.5-0.1,55-0.1,82.5,0c10.2,0,16.6,6.4,16.7,16.5c0.1,19.8,0.1,39.7,0,59.5c-0.1,10.4-6.5,16.7-17,16.8C89.1,95,77.3,94.7,65.4,95c-2.2,0-4.8,1.1-6.6,2.5c-6.6,5.6-13,11.5-19.4,17.3c-2.9,2.6-6.1,4.3-9.9,2.2c-4-2.1-4.8-5.6-4.1-9.8C26,103.4,26.3,99.6,26.8,94.9z"/>
		<path fill="#FFFFFF" d="M33.3,109.4c0.8-7.8,1.5-14.7,2.3-22.5c-5.3,0-10.4,0-15.4,0c-7.6,0-10.2-2.5-10.2-10.2c0-19,0-38,0-57c0-7.3,2.5-9.8,10-9.8c26.6,0,53.3,0,79.9,0c7.7,0,10.1,2.5,10.1,10.2c0,18.8,0,37.6,0,56.5c0,7.7-2.5,10.2-10.1,10.3c-12.5,0-25-0.1-37.5,0.1c-2.2,0-4.8,1.1-6.6,2.5c-6.3,5.2-12.2,10.8-18.3,16.3C36.4,106.9,35.1,107.9,33.3,109.4z M60.6,77.1c10.1-0.4,18.5-4.3,24.7-12.6c1.9-2.5,2.9-5.1,0-7.4c-3-2.3-5.1-0.4-7.1,2C67.9,71.2,53.3,71.1,43.1,59c-2-2.4-4.1-4.2-7.1-1.9c-2.9,2.3-1.9,4.9,0,7.4C42.2,72.6,50.3,76.6,60.6,77.1z M78.5,24c-4.6,0.1-8.5,4.1-8.4,8.7c0.2,4.4,4,8.2,8.4,8.2c4.6,0.1,8.5-3.8,8.5-8.5C87.1,27.6,83.3,23.9,78.5,24z M42.4,24c-4.7,0.1-8.5,4-8.4,8.6c0.1,4.4,4,8.2,8.3,8.3C47,41,51,37,51,32.4C51,27.7,47.1,23.9,42.4,24z"/>
	</symbol>

	<symbol id="mld-intro-c"
		xmlns:xlink="http://www.w3.org/1999/xlink" viewBox="-5 -5 130 130">
		<path fill="#ffc023" d="M26.8,94.9c-3.2,0-6,0.1-8.8,0C8.4,94.4,2.1,88.1,2.1,78.5c-0.1-20-0.1-40,0-60C2.1,8.4,8.6,2.1,18.8,2c27.5-0.1,55-0.1,82.5,0c10.2,0,16.6,6.4,16.7,16.5c0.1,19.8,0.1,39.7,0,59.5c-0.1,10.4-6.5,16.7-17,16.8C89.1,95,77.3,94.7,65.4,95c-2.2,0-4.8,1.1-6.6,2.5c-6.6,5.6-13,11.5-19.4,17.3c-2.9,2.6-6.1,4.3-9.9,2.2c-4-2.1-4.8-5.6-4.1-9.8C26,103.4,26.3,99.6,26.8,94.9z M33.3,109.4c1.9-1.5,3.2-2.5,4.3-3.6c6.1-5.4,12-11,18.3-16.3c1.7-1.4,4.3-2.5,6.6-2.5c12.5-0.2,25-0.1,37.5-0.1c7.6,0,10.1-2.6,10.1-10.3c0-18.8,0-37.6,0-56.5c0-7.7-2.4-10.2-10.1-10.2c-26.6,0-53.3,0-79.9,0c-7.4,0-10,2.5-10,9.8c0,19,0,38,0,57c0,7.6,2.5,10.1,10.2,10.2c5.1,0,10.2,0,15.4,0C34.8,94.7,34.1,101.6,33.3,109.4z"/>
		<path fill="#ffc023" d="M60.6,77.1C50.3,76.6,42.2,72.6,36,64.5c-1.9-2.5-3-5.1,0-7.4c3-2.3,5.1-0.5,7.1,1.9c10.2,12.1,24.7,12.2,34.9,0.1c2-2.4,4.1-4.3,7.1-2c2.9,2.3,1.9,4.9,0,7.4C79,72.8,70.6,76.7,60.6,77.1z"/>
		<path fill="#ffc023" d="M78.5,24c4.8-0.1,8.5,3.6,8.5,8.4c0,4.7-3.9,8.6-8.5,8.5c-4.4-0.1-8.2-3.9-8.4-8.2C70,28.1,73.9,24,78.5,24z"/>
		<path fill="#ffc023" d="M42.4,24c4.7-0.1,8.6,3.7,8.5,8.4c0,4.6-4,8.6-8.6,8.5c-4.4-0.1-8.2-3.9-8.3-8.3C33.9,28,37.8,24,42.4,24z"/>
	</symbol>

	<symbol id="mld-follow"
		xmlns:xlink="http://www.w3.org/1999/xlink" viewBox="-30 -50 600 600">
		<path fill="#000" d="M366.7,426.2c-100,38.8-251.5,21.4-302.3-84.6c-47.2-98.6-0.9-235,101.1-277.7c94.3-39.5,240.5-16,263.7,100c10.9,54.2-10,116.2-55.1,149.5c-40.4,29.8-42.5,1.9-35.7-31c11.9-57.4,24.1-114.7,36.2-172c-16.9,0-39-4.2-55.1,0c-17.5,4.6-13.6,6.7-18.5,28.3c-25.3-40.5-81-42.2-120.2-22.2c-41.6,21.2-69.5,67.8-79.8,112.1c-10.5,45.2-7.2,98.7,31,130.3c38.7,32,95.9,26.5,131.3-7.6c12.9,51.7,97.3,25.3,127.2,6.9c45.1-27.7,76.5-78,85-129.9C495.7,103.9,401.9,8.9,282.2,0.7c-122.2-8.4-232.9,54.2-270,174c-36,116.2,7.9,248.6,125.7,294c114.8,44.3,293,29.7,353.6-93.4c-14.1,0-37.7-4.8-50.7,0c-9.4,3.5-16.6,14.9-25,22C401.3,409.7,384.5,419.3,366.7,426.2z M277.1,265c-11.7,35.5-48.5,90.4-92.7,61.8c-35.8-23.2-22.8-85.5-11.1-117.7c11.7-31.9,41.6-70.2,80.7-56.9C299.1,167.6,288.5,230.5,277.1,265z"/>
	</symbol>

	<symbol id="mld-follow-c"
		xmlns:xlink="http://www.w3.org/1999/xlink" viewBox="-30 -50 600 600">
		<path fill="#ffc023" d="M366.7,426.2c-100,38.8-251.5,21.4-302.3-84.6c-47.2-98.6-0.9-235,101.1-277.7c94.3-39.5,240.5-16,263.7,100c10.9,54.2-10,116.2-55.1,149.5c-40.4,29.8-42.5,1.9-35.7-31c11.9-57.4,24.1-114.7,36.2-172c-16.9,0-39-4.2-55.1,0c-17.5,4.6-13.6,6.7-18.5,28.3c-25.3-40.5-81-42.2-120.2-22.2c-41.6,21.2-69.5,67.8-79.8,112.1c-10.5,45.2-7.2,98.7,31,130.3c38.7,32,95.9,26.5,131.3-7.6c12.9,51.7,97.3,25.3,127.2,6.9c45.1-27.7,76.5-78,85-129.9C495.7,103.9,401.9,8.9,282.2,0.7c-122.2-8.4-232.9,54.2-270,174c-36,116.2,7.9,248.6,125.7,294c114.8,44.3,293,29.7,353.6-93.4c-14.1,0-37.7-4.8-50.7,0c-9.4,3.5-16.6,14.9-25,22C401.3,409.7,384.5,419.3,366.7,426.2z M277.1,265c-11.7,35.5-48.5,90.4-92.7,61.8c-35.8-23.2-22.8-85.5-11.1-117.7c11.7-31.9,41.6-70.2,80.7-56.9C299.1,167.6,288.5,230.5,277.1,265z"/>
	</symbol>

	<symbol id="cm-extra" viewBox="0 0 37 37">
		<path style="fill:#FFC500;stroke:#FFFFFF;stroke-width:3.9;" d="M18.5,35C27.6,35,35,27.6,35,18.5S27.6,2,18.5,2S2,9.4,2,18.5S9.4,35,18.5,35z"/>
		<path style="fill:#FFFFFF;" d="M19.6,8.8v1.5c1.9,0,3.4,0.4,4.6,1.3l-2,2.5c-0.6-0.6-1.5-0.9-2.5-0.9v3.4l2,0.6c1,0.3,1.7,0.8,2.3,1.4c0.5,0.7,0.8,1.5,0.8,2.4c0,1.4-0.5,2.5-1.4,3.4c-1,0.8-2.2,1.3-3.7,1.4v1.5h-1.4v-1.5c-2.2,0-4-0.6-5.3-1.7l2.3-2.5c0.6,0.8,1.6,1.2,3,1.3v-3.6l-1.6-0.5c-1.1-0.4-1.9-0.8-2.5-1.5c-0.5-0.6-0.8-1.5-0.8-2.5c0-1.3,0.5-2.3,1.4-3.1c0.9-0.8,2.1-1.3,3.4-1.5V8.8H19.6z M18.2,16.3v-3c-1,0.2-1.5,0.7-1.5,1.4c0,0.2,0,0.5,0.1,0.6c0.1,0.2,0.2,0.3,0.3,0.4c0.2,0.1,0.3,0.2,0.4,0.2c0.1,0.1,0.2,0.1,0.4,0.2L18.2,16.3z M19.6,19.7v3.2c1.2-0.2,1.8-0.8,1.8-1.6c0-0.4-0.1-0.7-0.4-0.9c-0.2-0.2-0.6-0.4-1.1-0.6L19.6,19.7z"/>
	</symbol>

	<symbol id="cm-friend" viewBox="0 0 28 34">
		<path style="fill:#FFC500;stroke:#FFFFFF;stroke-width:2.4;" d="M7,8.9c0,4.3,3,7.8,6.7,7.8c3.7,0,6.7-3.5,6.7-7.8	c0-4.3-3-7.8-6.7-7.8C10,1.2,7,4.7,7,8.9z M1.2,27.7c0,4.2,3.9,4.5,9.2,4.5c1,0,2.1,0,3.1,0c1.1,0,2.1,0,3.1,0	c5.3,0,9.5-0.3,9.5-4.5c0-5-5.7-9.8-12.5-9.8S1.2,22.6,1.2,27.7z"/>
	</symbol>

	<symbol id="cm-chatting" viewBox="0 0 25 23">
		<path style="fill:#FFC500;" d="M12.5,2C6.7,2,2,6.3,2,11.5S6.7,21,12.5,21c2.2,0,4.2-0.6,6-1.7l1.1-0.7l1.1,0.8c0.1,0.1,0.2,0.1,0.3,0.2c-0.1-1,0-2.1,0.7-3.4l0.1-0.1c0.8-1.4,1.3-2.9,1.3-4.5C23,6.3,18.3,2,12.5,2z"/>
		<path style="fill:#FFFFFF;" d="M23.5,17c1-1.6,1.5-3.5,1.5-5.5C25,5.1,19.4,0,12.5,0S0,5.1,0,11.5C0,17.8,5.6,23,12.5,23c2.6,0,5-0.7,7.1-2c3.5,2.6,5.4,1.9,5.4,1.9C22.9,20.2,22.5,19,23.5,17z M21.7,16.1c-0.6,1.3-0.8,2.4-0.7,3.4c-0.1-0.1-0.2-0.1-0.3-0.2l-1.1-0.8l-1.1,0.7c-1.8,1.1-3.8,1.7-6,1.7C6.7,21,2,16.7,2,11.5S6.7,2,12.5,2S23,6.3,23,11.5c0,1.6-0.4,3.1-1.3,4.5V16.1z"/>
	</symbol>

	<symbol id="chatspin-plus-logo"
		xmlns:xlink="http://www.w3.org/1999/xlink" viewBox="0 0 306.5 32">
		<path fill="#fabe3a" d="M0 17C0 9.3 5.8 4 13.1 4c5.7 0 8.9 3 10.7 6.1l-4.6 2.3c-1.1-2-3.3-3.6-6.1-3.6-4.4 0-7.7 3.5-7.7 8.2s3.3 8.2 7.7 8.2c2.8 0 5-1.6 6.1-3.6l4.6 2.2c-1.8 3.1-5 6.2-10.7 6.2C5.8 30 0 24.7 0 17M51.7 19H39.9v10.5h-5.4v-25h5.4v9.8h11.8V4.5h5.4v25h-5.4zM85.5 25.2H74.3l-1.6 4.3h-5.9l9.7-25.1h6.7l9.7 25.1H87l-1.5-4.3zm-9.8-4.6H84L79.9 9.1l-4.2 11.5zM106.1 9.1h-7.3V4.5h20v4.6h-7.3v20.4h-5.4z"/>
		<path fill="#141821" d="M130.5 23.6c1.7 1.8 4.4 3.6 7.9 3.6 4.5 0 5.9-2.4 5.9-4.3 0-3-3-3.8-6.3-4.7-4-1.1-8.5-2.2-8.5-7.1 0-4.1 3.7-6.9 8.6-6.9 3.8 0 6.8 1.3 8.9 3.5l-1.9 2.3c-1.9-2.1-4.5-3-7.3-3-3 0-5.1 1.6-5.1 4 0 2.5 2.9 3.3 6.1 4.1 4.1 1.1 8.8 2.4 8.8 7.6 0 3.6-2.5 7.4-9.2 7.4-4.4 0-7.5-1.7-9.6-4l1.7-2.5zM159.7 4.5h10.1c5 0 7.9 3.5 7.9 7.6s-2.9 7.6-7.9 7.6h-7v10h-3.1V4.5zm9.7 2.7h-6.6v9.5h6.6c3 0 5-2 5-4.8s-2.1-4.7-5-4.7M189.2 4.5h3.1v25.1h-3.1zM208.9 9.3v20.2h-3.2v-25h3.2l14.5 19.7V4.5h3.1v25h-3z"/>
		<path d="M303.7 32h-62.5c-1.5 0-2.8-1.2-2.8-2.8V2.8c0-1.5 1.2-2.8 2.8-2.8h62.5c1.5 0 2.8 1.2 2.8 2.8v26.5c0 1.5-1.3 2.7-2.8 2.7" clip-path="url(#SVGID_2_)" fill="#fabe3a"/>
		<path fill="#ffffff" d="M252.3 9.5h4.3c1.6 0 2.6.1 3.3 1 .5.7.6 1.5.4 2.5-.2 1-.7 1.8-1.6 2.5-.8.7-1.8 1.1-4.1 1.1h-2.1l-1.2 5.7h-1.8l2.8-12.8zm.6 5.7h2.1c1.2 0 3-.1 3.5-2.2.4-2-1.3-2-2.2-2h-2.5l-.9 4.2zM263.3 9.5h1.7l-2.4 11.3h6.1l-.4 1.6h-7.8zM275 9.5l-1.7 8c-.3 1.4-.1 1.9.1 2.3.6 1.1 1.8 1.3 2.7 1.3 3.5 0 4.1-2.7 4.3-3.7l1.7-7.9h1.7l-1.7 8c-.1.7-.5 2.1-1.8 3.4-1.6 1.6-3.6 1.8-4.5 1.8-1.2 0-3.3-.3-4.1-2.1-.3-.6-.5-1.3-.1-3.3l1.7-7.9h1.7zM286.4 18.7c-.2.9-.4 2.6 2.6 2.6 2.7 0 3.4-1.7 3.5-2.3.3-1.4-.8-1.7-2.5-2.2-1.9-.5-2.7-.7-3.3-1.1-.9-.7-1-1.7-.8-2.5.6-2.6 3.3-3.8 5.7-3.8.9 0 2.6.1 3.4 1.3.6.8.4 1.7.3 2.2h-1.9c.3-1.6-1-2-2.3-2-1.8 0-3 .8-3.3 2.1-.3 1.1.4 1.5 1.9 1.9 2.9.8 3.2.9 3.9 1.4 1 .8.9 2 .7 2.6-.5 2.3-2.6 4-6 4-1 0-3-.2-3.7-1.5-.5-.9-.3-2-.2-2.6h2z"/>
	</symbol>

	<symbol id="chatspin-plus-logo-white"
		xmlns:xlink="http://www.w3.org/1999/xlink" viewBox="0 0 306.5 32">
		<path fill="#ffffff" d="M0 17C0 9.3 5.8 4 13.1 4c5.7 0 8.9 3 10.7 6.1l-4.6 2.3c-1.1-2-3.3-3.6-6.1-3.6-4.4 0-7.7 3.5-7.7 8.2s3.3 8.2 7.7 8.2c2.8 0 5-1.6 6.1-3.6l4.6 2.2c-1.8 3.1-5 6.2-10.7 6.2C5.8 30 0 24.7 0 17M51.7 19H39.9v10.5h-5.4v-25h5.4v9.8h11.8V4.5h5.4v25h-5.4zM85.5 25.2H74.3l-1.6 4.3h-5.9l9.7-25.1h6.7l9.7 25.1H87l-1.5-4.3zm-9.8-4.6H84L79.9 9.1l-4.2 11.5zM106.1 9.1h-7.3V4.5h20v4.6h-7.3v20.4h-5.4z"/>
		<path fill="#141821" d="M130.5 23.6c1.7 1.8 4.4 3.6 7.9 3.6 4.5 0 5.9-2.4 5.9-4.3 0-3-3-3.8-6.3-4.7-4-1.1-8.5-2.2-8.5-7.1 0-4.1 3.7-6.9 8.6-6.9 3.8 0 6.8 1.3 8.9 3.5l-1.9 2.3c-1.9-2.1-4.5-3-7.3-3-3 0-5.1 1.6-5.1 4 0 2.5 2.9 3.3 6.1 4.1 4.1 1.1 8.8 2.4 8.8 7.6 0 3.6-2.5 7.4-9.2 7.4-4.4 0-7.5-1.7-9.6-4l1.7-2.5zM159.7 4.5h10.1c5 0 7.9 3.5 7.9 7.6s-2.9 7.6-7.9 7.6h-7v10h-3.1V4.5zm9.7 2.7h-6.6v9.5h6.6c3 0 5-2 5-4.8s-2.1-4.7-5-4.7M189.2 4.5h3.1v25.1h-3.1zM208.9 9.3v20.2h-3.2v-25h3.2l14.5 19.7V4.5h3.1v25h-3z"/>
		<path d="M303.7 32h-62.5c-1.5 0-2.8-1.2-2.8-2.8V2.8c0-1.5 1.2-2.8 2.8-2.8h62.5c1.5 0 2.8 1.2 2.8 2.8v26.5c0 1.5-1.3 2.7-2.8 2.7" clip-path="url(#SVGID_2_)" fill="#ffffff"/>
		<path fill="#fabe3a" d="M252.3 9.5h4.3c1.6 0 2.6.1 3.3 1 .5.7.6 1.5.4 2.5-.2 1-.7 1.8-1.6 2.5-.8.7-1.8 1.1-4.1 1.1h-2.1l-1.2 5.7h-1.8l2.8-12.8zm.6 5.7h2.1c1.2 0 3-.1 3.5-2.2.4-2-1.3-2-2.2-2h-2.5l-.9 4.2zM263.3 9.5h1.7l-2.4 11.3h6.1l-.4 1.6h-7.8zM275 9.5l-1.7 8c-.3 1.4-.1 1.9.1 2.3.6 1.1 1.8 1.3 2.7 1.3 3.5 0 4.1-2.7 4.3-3.7l1.7-7.9h1.7l-1.7 8c-.1.7-.5 2.1-1.8 3.4-1.6 1.6-3.6 1.8-4.5 1.8-1.2 0-3.3-.3-4.1-2.1-.3-.6-.5-1.3-.1-3.3l1.7-7.9h1.7zM286.4 18.7c-.2.9-.4 2.6 2.6 2.6 2.7 0 3.4-1.7 3.5-2.3.3-1.4-.8-1.7-2.5-2.2-1.9-.5-2.7-.7-3.3-1.1-.9-.7-1-1.7-.8-2.5.6-2.6 3.3-3.8 5.7-3.8.9 0 2.6.1 3.4 1.3.6.8.4 1.7.3 2.2h-1.9c.3-1.6-1-2-2.3-2-1.8 0-3 .8-3.3 2.1-.3 1.1.4 1.5 1.9 1.9 2.9.8 3.2.9 3.9 1.4 1 .8.9 2 .7 2.6-.5 2.3-2.6 4-6 4-1 0-3-.2-3.7-1.5-.5-.9-.3-2-.2-2.6h2z"/>
	</symbol>

	<symbol id="free-title"
		xmlns:xlink="http://www.w3.org/1999/xlink" viewBox="0 0 59 56.1">
		<path fill="#ffffff" d="M23.8,26.4l-1.4,0.5l0.7,2.2l1.3-0.4c0.3-0.1,0.5-0.2,0.6-0.2c0.2-0.1,0.3-0.2,0.5-0.3c0.2-0.1,0.3-0.3,0.4-0.5c0.1-0.2,0-0.4,0-0.7C25.6,26.3,24.9,26.1,23.8,26.4z"/>
		<path fill="#ffffff" d="M59,28.1l-10.5-6.2l4.8-11.2l-12.1,1.1L38.6,0l-9.1,8l-9.1-8l-2.7,11.9L5.6,10.7l4.8,11.2L0,28.1l10.5,6.2L5.6,45.4l12.1-1.1l2.7,11.9l9.1-8l9.1,8l2.7-11.9l12.1,1.1l-4.8-11.2L59,28.1z M15.5,33.7l1.2,3.8l-2.2,0.7l-3.1-9.9l6.6-2.1l0.6,2l-4.4,1.4l0.6,2l4.1-1.3l0.6,2L15.5,33.7z M28,33.9l-3.3-3.3L23.7,31l1.3,3.9l-2.2,0.7l-3.1-9.9l3.8-1.2c2.5-0.8,4-0.2,4.7,1.8c0.2,0.7,0.2,1.4,0,2c-0.2,0.6-0.6,1.1-1.3,1.4l3.8,3.4L28,33.9z M31.9,32.7l-3.1-9.9l6.7-2.1l0.6,2l-4.5,1.4l0.6,1.8l4.3-1.4l0.6,2L32.7,28l0.6,2l4.8-1.5l0.6,2L31.9,32.7z M40.6,29.9L37.5,20l6.7-2.1l0.6,2l-4.5,1.4l0.6,1.8l4.3-1.4l0.6,2l-4.3,1.4l0.6,2l4.8-1.5l0.6,2L40.6,29.9z"/>
	</symbol>

	<symbol id="tip-title"
		xmlns:xlink="http://www.w3.org/1999/xlink" viewBox="0 0 53.7 66.1">
		<path fill="#ffffff" d="M18.4,24c6.3,0,11.4-5.4,11.4-12c0-6.6-5.1-12-11.4-12C12.2,0,7.1,5.4,7.1,12C7.1,18.6,12.2,24,18.4,24"/>
		<polygon fill="#ffffff" points="44.5,44.8 39,36.1 47,36.1 27,36 20.3,44.7 37.6,66.1 35.3,63.3 "/>
		<polygon fill="#ffffff" fill-opacity="0.4353" points="47,36.1 39,36.1 44.5,44.8 35.3,63.3 37.6,66.1 53.7,44.7 "/>
		<path fill="#ffffff" d="M17.7,44.7L26,34l10,0c-2.7-3.8-6.9-6.3-11.8-6.3h-9.7C6.5,27.7,0,34.6,0,43v12.4l0,0.2l0.8,0.3c7.7,2.5,14.3,3.4,19.8,3.4c3.2,0,5.9-0.3,8.3-0.7L17.7,44.7z"/>
	</symbol>

	<symbol id="send-gem"
		xmlns:xlink="http://www.w3.org/1999/xlink" viewBox="0 0 96.7 62.1">
		<path fill="#ffffff" d="M76.7,52.1c-0.5,0-1-0.3-1.3-0.7c-5.7-8.3-17.2-10.8-25.7-5.4c-0.5,0.3-1.1,0.4-1.6,0.1c-0.6-0.3-0.9-0.9-0.9-1.5c0-0.5,0.2-1,0.7-1.3c10.1-6.3,23.7-3.5,30.4,6.4c0.3,0.5,0.4,1,0.1,1.5c-0.3,0.5-0.8,0.9-1.5,1C76.8,52.1,76.7,52.1,76.7,52.1z"/>
		<path fill="#ffffff" d="M57.6,27.6c-0.5,0-0.9,0-1.4-0.1c-3.5-0.7-5.8-4.2-5-7.7c0.4-1.7,1.4-3.2,2.8-4.1c1.5-0.9,3.2-1.3,4.9-0.9c1.7,0.4,3.2,1.4,4.1,2.8c0.9,1.5,1.3,3.2,0.9,4.9c-0.4,1.7-1.4,3.2-2.8,4.1C60.1,27.3,58.9,27.6,57.6,27.6z M57.6,17.6c-1.6,0-3.1,1.1-3.4,2.8c-0.4,1.9,0.8,3.8,2.7,4.2c1.9,0.4,3.8-0.8,4.2-2.7c0.4-1.9-0.8-3.8-2.7-4.2C58.1,17.6,57.8,17.6,57.6,17.6z"/>
		<path fill="#ffffff" d="M75.2,31.4c-0.4,0-0.9,0-1.4-0.1c-3.5-0.7-5.8-4.2-5-7.7c0.4-1.7,1.4-3.2,2.8-4.1c1.5-0.9,3.2-1.3,4.9-0.9c1.7,0.4,3.2,1.4,4.1,2.8s1.3,3.2,0.9,4.9C80.9,29.3,78.2,31.4,75.2,31.4z M75.2,21.4c-1.6,0-3.1,1.1-3.4,2.8c-0.4,1.9,0.8,3.8,2.7,4.2c1.9,0.4,3.8-0.8,4.2-2.7c0.4-1.9-0.8-3.8-2.7-4.2C75.7,21.4,75.5,21.4,75.2,21.4z"/>
		<path fill="#ffffff" fill-opacity="0.27" d="M32.5,24.3c0.3-1.4,0.7-2.8,1.2-4.2l-3.9-3.2l-9.2,1.9l6.8,9.2L25,46L12.5,31l1.6-10.9l-6.2,1.3l-5.4,11l23.9,19.2l6.5-13.6C31.7,33.7,31.5,29,32.5,24.3z"/>
		<path fill="#ffffff" d="M91.3,14.4c-4.8-7-12.1-11.8-20.6-13.6C55.5-2.5,40.5,5.1,34.5,18.2c0,0,0,0,0,0l-4.2-3.5l-23.8,5L0,33l27.1,21.8l6.6-14c0,0,0,0,0,0c3.7,10,12.6,18.1,24.1,20.6c2.4,0.5,4.7,0.7,7.1,0.7c14.9,0,28.1-9.9,31.2-24.3C97.8,29.7,96.1,21.4,91.3,14.4z M26.4,51.6L2.5,32.4l5.4-11l21.9-4.6l4,3.3c0,0,0,0,0,0c-0.5,1.3-0.9,2.7-1.2,4.2c-1,4.7-0.8,9.3,0.3,13.7c0,0,0,0,0,0L26.4,51.6z M33.2,39.4C33.2,39.4,33.2,39.4,33.2,39.4C33.2,39.4,33.2,39.4,33.2,39.4zM93.2,37.2c-3.2,15.1-18.8,24.6-34.7,21.3c-15.9-3.4-26.2-18.4-23-33.5C38.2,11.9,50.2,3,63.7,3c2.1,0,4.3,0.2,6.5,0.7c7.7,1.6,14.4,6,18.7,12.4C93.2,22.4,94.7,29.9,93.2,37.2z"/>
	</symbol>
</svg>