<?xml version="1.0" encoding="utf-8"?>
<!-- Generator: Adobe Illustrator 21.0.0, SVG Export Plug-In . SVG Version: 6.00 Build 0)  -->
<svg version="1.1" id="Слой_1" xmlns="http://www.w3.org/2000/svg" xmlns:xlink="http://www.w3.org/1999/xlink" x="0px" y="0px"
	 viewBox="0 0 100 100" style="enable-background:new 0 0 100 100;" xml:space="preserve">
<g>
	
		<linearGradient id="SVGID_1_" gradientUnits="userSpaceOnUse" x1="5.875" y1="5.875" x2="94.125" y2="94.125" gradientTransform="matrix(1 0 0 -1 0 100)">
		<stop  offset="0.2781" style="stop-color:#00ADEF"/>
		<stop  offset="0.7732" style="stop-color:#0089F1"/>
	</linearGradient>
	<path style="fill:url(#SVGID_1_);" d="M80,100H20C9,100,0,91,0,80V20C0,9,9,0,20,0h60c11,0,20,9,20,20v60C100,91,91,100,80,100z"/>
	<g>
		<path style="fill:#FFFFFF;" d="M67.1,47.6v-5.7c0-7.7-7.5-13.3-16.5-13.3S34,34.2,34,41.9v5.6c-1.1,0.3-2.1,1.1-2.1,2.6v7.8
			c0,8.5,8.3,15.3,18.6,15.3s18.6-6.7,18.6-15.3v-7.8C69.1,48.7,68.2,47.9,67.1,47.6z M52.8,62.3c-0.3,0.2-0.5,0.5-0.5,0.9v3.2
			c0,1.1-0.9,1.8-1.8,1.8l0,0c-1.1,0-1.8-0.9-1.8-1.8v-3.2c0-0.3-0.2-0.6-0.5-0.9c-1.5-0.9-2.5-2.5-2.5-4.2c0-2.7,2.3-4.8,4.9-4.8
			c2.6,0,4.8,2.2,4.8,4.9C55.2,59.9,54.2,61.5,52.8,62.3z M59.9,47.3l-19-0.1c-0.3,0-0.5-0.2-0.5-0.5v-2.7c0-5,3.9-8.8,9.8-8.8
			c7,0,10.2,3.9,10.2,9.1v2.5C60.5,47.1,60.3,47.3,59.9,47.3z"/>
		<path style="fill:#FFFFFF;" d="M50,91.7c-5.6,0-11.1-1.1-16.2-3.2c-5-2.1-9.4-5.1-13.3-9c-3.8-3.8-6.8-8.3-9-13.3
			C9.4,61,8.3,55.6,8.3,50s1.1-11.1,3.2-16.2c2.1-5,5.1-9.4,9-13.3s8.3-6.8,13.3-9C39,9.4,44.4,8.3,50,8.3s11.1,1.1,16.2,3.2
			c5,2.1,9.4,5.1,13.3,9s6.8,8.3,9,13.3c2.2,5.2,3.2,10.6,3.2,16.2s-1.1,11.1-3.2,16.2c-2.1,5-5.1,9.4-9,13.3
			c-3.8,3.8-8.3,6.8-13.3,9C61.1,90.5,55.7,91.7,50,91.7z M50,12.8c-20.5,0-37.2,16.6-37.2,37.2S29.5,87.2,50,87.2
			S87.2,70.5,87.2,50S70.5,12.8,50,12.8z"/>
	</g>
</g>
</svg>
