<?xml version="1.0" encoding="utf-8"?>
<!-- Generator: Adobe Illustrator 21.0.0, SVG Export Plug-In . SVG Version: 6.00 Build 0)  -->
<svg version="1.1" id="Layer_1" xmlns="http://www.w3.org/2000/svg" xmlns:xlink="http://www.w3.org/1999/xlink" x="0px" y="0px"
	 viewBox="0 0 100 100" style="enable-background:new 0 0 100 100;" xml:space="preserve">
<path style="fill:#FFFC00;" d="M80,100H20C9,100,0,91,0,80V20C0,9,9,0,20,0h60c11,0,20,9,20,20v60C100,91,91,100,80,100z"/>
<g>
	<path style="fill:#FFFFFF;" d="M50.5,88.4c-0.2,0-0.5,0-0.6,0c-0.1,0-0.3,0-0.4,0c-4.9,0-8.1-2.3-11-4.3c-2.1-1.5-4-2.8-6.3-3.2
		c-1.1-0.2-2.2-0.3-3.3-0.3c-1.9,0-3.5,0.3-4.6,0.5c-0.7,0.1-1.3,0.2-1.7,0.2c-0.5,0-1.1-0.1-1.3-0.9c-0.2-0.7-0.3-1.3-0.5-1.9
		c-0.3-1.5-0.6-2.5-1.1-2.5c-6.1-0.9-9.7-2.3-10.5-4C9.1,71.8,9,71.6,9,71.4c0-0.5,0.3-0.9,0.8-1c4.9-0.8,9.2-3.4,12.8-7.6
		c2.8-3.3,4.2-6.5,4.4-6.8c0,0,0,0,0,0c0.7-1.4,0.8-2.7,0.4-3.7c-0.8-1.9-3.4-2.7-5.1-3.2c-0.4-0.1-0.8-0.3-1.2-0.4
		c-1.5-0.6-4.1-1.9-3.7-3.6c0.2-1.3,1.9-2.2,3.3-2.2c0.4,0,0.7,0.1,1,0.2c1.6,0.7,3,1.1,4.2,1.1c1.5,0,2.2-0.6,2.4-0.7
		c0-0.8-0.1-1.6-0.1-2.4c0,0,0,0,0,0c-0.4-5.6-0.8-12.5,1-16.5c5.3-11.9,16.6-12.8,19.9-12.8c0.1,0,1.5,0,1.5,0c0.1,0,0.1,0,0.2,0
		c3.3,0,14.6,0.9,20,12.9c1.8,4,1.3,10.9,1,16.5l0,0.3c0,0.8-0.1,1.5-0.1,2.2c0.2,0.2,0.8,0.7,2.2,0.7c1.1,0,2.5-0.4,3.9-1.1
		c0.4-0.2,0.9-0.3,1.3-0.3c0.5,0,1,0.1,1.5,0.3l0,0c1.2,0.4,2,1.3,2.1,2.2c0,0.9-0.6,2.1-3.7,3.4c-0.3,0.1-0.7,0.3-1.2,0.4
		c-1.7,0.5-4.3,1.4-5.1,3.2c-0.4,1-0.3,2.2,0.4,3.7c0,0,0,0,0,0c0.2,0.5,5.5,12.5,17.2,14.4c0.5,0.1,0.8,0.5,0.8,1
		c0,0.2-0.1,0.4-0.1,0.5c-0.7,1.7-4.3,3.1-10.5,4c-0.6,0.1-0.8,1-1.1,2.5c-0.1,0.6-0.3,1.2-0.5,1.9c-0.2,0.6-0.6,0.9-1.2,0.9h-0.1
		c-0.4,0-1-0.1-1.7-0.2c-1.3-0.3-2.7-0.5-4.6-0.5c-1.1,0-2.2,0.1-3.3,0.3c-2.3,0.4-4.2,1.8-6.3,3.2C58.7,86.1,55.4,88.4,50.5,88.4"
		/>
	<path d="M90.5,68.5c-10.7-1.8-15.5-12.8-15.7-13.2c0-0.1-0.1-0.1-0.1-0.2c-0.4-0.9-0.6-1.6-0.4-2c0.4-1,2.7-1.7,3.9-2.1
		c0.5-0.1,0.9-0.3,1.3-0.4c1.7-0.7,2.9-1.4,3.7-2.2c1.1-1.1,1.3-2.3,1.3-3c0-1.8-1.3-3.3-3.3-4c-0.7-0.3-1.4-0.4-2.2-0.4
		c-0.5,0-1.3,0.1-2.1,0.4c-1.2,0.6-2.2,0.9-3,0.9c-0.1,0-0.1,0-0.2,0l0.1-1c0.4-5.8,0.8-13-1.2-17.4c-1.3-3-3.1-5.6-5.4-7.7
		c-1.9-1.8-4-3.2-6.4-4.2c-4.2-1.8-8-2.1-10-2.1l-1.7,0c-1.9,0-5.8,0.3-10,2.1c-2.4,1.1-4.5,2.5-6.4,4.2c-2.2,2.1-4,4.7-5.3,7.7
		c-2,4.4-1.5,11.6-1.2,17.4l0.1,1.1c-0.1,0-0.2,0-0.3,0c-0.9,0-2-0.3-3.3-0.9c-1.4-0.6-3.3-0.4-4.9,0.5c-1.2,0.7-2,1.8-2.3,2.9
		c-0.2,0.8-0.2,2.4,1.5,3.9c0.8,0.7,2,1.4,3.4,2c0.4,0.1,0.8,0.3,1.3,0.4c1.2,0.4,3.5,1.1,3.9,2.1c0.2,0.4,0.1,1.2-0.4,2
		c0,0,0,0.1-0.1,0.1c-0.1,0.3-1.4,3.2-4.1,6.3c-1.5,1.7-3.1,3.2-4.9,4.3c-2.1,1.4-4.4,2.3-6.8,2.6C8,68.7,7,70,7.1,71.6
		c0,0.4,0.1,0.8,0.3,1.2l0,0c0.5,1.2,1.6,2.1,3.3,2.9c1.8,0.8,4.5,1.6,7.9,2.1c0.1,0.4,0.2,0.8,0.3,1.1c0.1,0.6,0.3,1.3,0.5,2
		c0.4,1.5,1.6,2.4,3.2,2.4c0.6,0,1.3-0.1,2.1-0.3c1-0.2,2.5-0.5,4.2-0.5c1,0,2,0.1,3,0.3c1.8,0.3,3.5,1.5,5.5,2.9
		c3.1,2.2,6.7,4.7,12.2,4.7c0.1,0,0.3,0,0.4,0c0.2,0,0.4,0,0.6,0c5.5,0,9-2.5,12.2-4.7c1.9-1.4,3.6-2.6,5.5-2.9c1-0.2,2-0.3,3-0.3
		c1.7,0,3,0.2,4.2,0.4c0.9,0.2,1.6,0.3,2.1,0.3c0,0,0,0,0,0l0.1,0c1.5,0,2.7-0.9,3.1-2.3c0.2-0.7,0.4-1.4,0.5-2
		c0.1-0.2,0.2-0.7,0.3-1.1c3.4-0.6,6.1-1.3,7.9-2.1c1.7-0.8,2.8-1.8,3.3-2.9c0.2-0.4,0.3-0.8,0.3-1.2C93,70,92,68.7,90.5,68.5z
		 M77.6,80.3l-0.2-1c0,0,0.1,0,0.1,0L77.6,80.3C77.6,80.3,77.6,80.3,77.6,80.3z M77.3,78.1c-0.1,0.4-0.2,0.8-0.3,1.2
		c-0.2,0-0.5-0.1-0.9-0.1c-1.3-0.3-3-0.5-5-0.5c-1.2,0-2.4,0.1-3.6,0.3c-2.7,0.5-4.9,2-7.1,3.6c-2.9,2-5.6,4-9.9,4
		c-0.2,0-0.4,0-0.6,0l-0.2,0c-0.1,0-0.2,0-0.3,0c-4.2,0-7-1.9-9.9-4c-2.3-1.6-4.4-3.1-7.1-3.5c-1.2-0.2-2.4-0.3-3.6-0.3
		c-2.1,0-3.8,0.3-5,0.6c-0.3,0.1-0.6,0.1-0.9,0.2c-0.1-0.4-0.2-0.8-0.3-1.2c-0.4-1.8-0.8-3.8-2.8-4.1c-4.4-0.7-6.7-1.5-7.8-2.1
		c11.2-2.9,16.3-13.9,16.8-15.2c1-2,1.1-3.8,0.5-5.3c-1.1-2.7-4.3-3.7-6.4-4.3c-0.4-0.1-0.8-0.2-1-0.3c-1.7-0.7-2.3-1.3-2.4-1.5
		c0.2-0.2,0.8-0.5,1.3-0.5c0.1,0,0.2,0,0.2,0c1.8,0.9,3.5,1.3,5,1.3c2.5,0,3.7-1.2,3.9-1.4l0.5-0.6l0-0.8c0-0.8-0.1-1.7-0.2-2.5
		c-0.3-5.4-0.8-12,0.8-15.6c4.8-10.8,15.1-11.7,18.1-11.7c0.1,0,1.5,0,1.5,0l0.1,0c3,0,13.3,0.8,18.2,11.7
		c1.6,3.5,1.2,10.2,0.8,15.6l0,0.4c0,0.7-0.1,1.4-0.1,2.1l0,0.8l0.5,0.6c0.2,0.2,1.3,1.3,3.6,1.4l0.1,0l0,0c1.4-0.1,3-0.5,4.7-1.3
		c0.1-0.1,0.8-0.1,1.1,0.1l0.1,0c0.4,0.1,0.6,0.3,0.7,0.4c-0.1,0.2-0.7,0.8-2.4,1.5c-0.3,0.1-0.6,0.2-1,0.3
		c-2.1,0.7-5.2,1.7-6.4,4.3c-0.7,1.6-0.5,3.4,0.4,5.3c0.6,1.3,5.6,12.3,16.8,15.2c-1.1,0.6-3.4,1.4-7.8,2.1
		C78.1,74.3,77.7,76.3,77.3,78.1z"/>
</g>
</svg>
