<?xml version="1.0" encoding="utf-8"?>
<!-- Generator: Adobe Illustrator 21.0.0, SVG Export Plug-In . SVG Version: 6.00 Build 0)  -->
<svg version="1.1" id="Capa_1" xmlns="http://www.w3.org/2000/svg" xmlns:xlink="http://www.w3.org/1999/xlink" x="0px" y="0px"
	 viewBox="0 0 100 100" style="enable-background:new 0 0 100 100;" xml:space="preserve">
<g>
	<path style="fill:#151415;" d="M80,100H20C9,100,0,91,0,80V20C0,9,9,0,20,0h60c11,0,20,9,20,20v60C100,91,91,100,80,100z"/>
	<g>
		<path style="fill:#E4174E;" d="M68.2,21.4c-4-4.6-3.8-10.4-3.8-10.4h-3.2C61.6,14,63.2,18.6,68.2,21.4z"/>
		<path style="fill:#E4174E;" d="M40.6,43.2c-5.2,0-9.2,4.2-9.2,9.2c0,3.8,2.2,7,5.4,8.4c-1.2-1.6-2-3.6-2-5.6C34.8,50,39,46,44,46
			c1,0,2,0.2,2.8,0.4V34.8c-1-0.2-1.8-0.2-2.8-0.2c-0.2,0-0.4,0-0.6,0v9C42.6,43.4,41.6,43.2,40.6,43.2z"/>
		<path style="fill:#E4174E;" d="M76.6,26v9c0,0-6.8,1-15.6-5c0,3.6,0,7,0,10.6c0,7.2,1,14.6-2.4,21.2c-3.4,7-10.4,11.2-18,11.2
			c-4,0-7.8-1.2-11-3.2c3.8,3.6,8.8,6,14.4,6c7.8,0,14.6-4.4,18-11.2c3.2-6.6,2.4-14,2.4-21.2c0-3.6,0-7,0-10.6
			c8.6,5.8,15.6,5,15.6,5V26.4C78.8,26.4,77.6,26.2,76.6,26z"/>
		<path style="fill:#00B0B7;" d="M76.6,26v-2.2c-3.6-0.2-6.2-1.2-8.4-2.4C70,23.4,72.6,25.2,76.6,26z"/>
		<path style="fill:#00AFB6;" d="M23.4,55.2c0-11.2,9-20.2,20-20.6V32c-1,0-1.8,0-2.8,0C29.2,32,20,41.2,20,52.6
			c0,7.4,3.8,13.8,9.6,17.4C25.8,66.2,23.4,61,23.4,55.2z"/>
		<path style="fill:#00AFB6;" d="M44,64.4c5,0,8.8-4,9.2-8.8c0.4-6.2,0.2-12.6,0.2-18.8c0-0.6,0-25.8,0-25.8h7.8
			C61,9.4,61,8.2,61,8.2H50c0,0,0,25.2,0,25.8c0,6.2,0.2,12.6-0.2,18.8c-0.4,4.8-4.2,8.8-9.2,8.8c-1.4,0-2.6-0.4-3.8-0.8
			C38.4,63,41,64.4,44,64.4z"/>
		<path style="fill:#FFFFFF;" d="M58.6,61.8c3.2-6.6,2.4-14,2.4-21.2c0-3.6,0-7,0-10.6c8.6,5.8,15.6,5,15.6,5v-9
			c-4-0.8-6.6-2.6-8.4-4.6c-5-2.8-6.6-7.4-7-10.4h-7.8c0,0,0,25.2,0,25.8c0,6.2,0.2,12.6-0.2,18.8c-0.4,4.8-4.2,8.8-9.2,8.8
			c-3,0-5.6-1.4-7.4-3.6c-3.2-1.4-5.4-4.6-5.4-8.4c0-5.2,4.2-9.2,9.2-9.2c1,0,2,0.2,2.8,0.4v-9c-11,0.4-20,9.4-20,20.6
			c0,5.8,2.4,11,6.2,14.6c3.2,2,7,3.2,11,3.2C48.4,73.2,55.2,68.8,58.6,61.8z"/>
	</g>
	<g>
		<polygon style="fill:#FFFFFF;" points="20,78.6 20,81.6 23.2,81.6 23.2,91.8 26.6,91.8 26.6,81.6 29,81.6 30.2,78.6 		"/>
		<polygon style="fill:#FFFFFF;" points="46.6,78.6 46.6,81.6 49.8,81.6 49.8,91.8 53.2,91.8 53.2,81.6 55.8,81.6 56.8,78.6 		"/>
		<rect x="30.4" y="83" style="fill:#FFFFFF;" width="3.4" height="8.8"/>
		<circle style="fill:#FFFFFF;" cx="32.2" cy="80.4" r="1.6"/>
		<path style="fill:#FFFFFF;" d="M35,78.6v13.2c0,0,3.2-0.2,3.4,0s0-3.2,0-3.2l1.2-1l2.8,4.2H46l-4.4-6.4l4-3.6h-4l-3,2.8v-6.2H35
			V78.6z"/>
		<path style="fill:#FFFFFF;" d="M69.2,78.6v13.2c0,0,3.2-0.2,3.4,0s0-3.2,0-3.2l1.2-1l2.8,4.2H80l-4.4-6.4l4-3.6h-4l-3,2.8v-6.2
			h-3.4V78.6z"/>
		<g>
			<path style="fill:#02B2BA;" d="M56.2,86.6c0-3,2.4-5.4,5.2-5.6c-0.2,0-0.2,0-0.4,0c-3.2,0-5.6,2.6-5.6,5.6s2.6,5.6,5.6,5.6
				c0.2,0,0.2,0,0.4,0C58.6,92,56.2,89.4,56.2,86.6z"/>
			<path style="fill:#E41A4E;" d="M62.4,80.8h-0.2c3,0.2,5.4,2.6,5.4,5.6s-2.4,5.4-5.4,5.6h0.2c3.2,0,5.6-2.6,5.6-5.6
				S65.6,80.8,62.4,80.8z"/>
			<path style="fill:#FFFFFF;" d="M62.2,80.8H62c-0.2,0-0.2,0-0.4,0c-3,0.2-5.2,2.6-5.2,5.6s2.4,5.4,5.2,5.6c0.2,0,0.2,0,0.4,0h0.2
				c3-0.2,5.4-2.6,5.4-5.6S65.2,81,62.2,80.8z M59.4,86.6c0-1.2,1-2.2,2-2.4c0.2,0,0.2,0,0.4,0H62c1.2,0.2,2.2,1.2,2.2,2.4
				c0,1.2-1,2.4-2.2,2.4h-0.2c-0.2,0-0.2,0-0.4,0C60.4,88.8,59.4,87.8,59.4,86.6z"/>
		</g>
	</g>
</g>
</svg>
